<svg xmlns="http://www.w3.org/2000/svg" width="52" height="56" viewBox="0 0 52 56" fill="none">
  <g clip-path="url(#clip0_331_25407)">
    <path d="M39.8999 56.0011H0.899902V16.0311L20.3999 7.37109L39.8999 16.0311V56.0011Z" fill="#FF5436"/>
    <path d="M19.8999 29.3291C23.3627 29.3291 26.1699 26.5219 26.1699 23.0591C26.1699 19.5962 23.3627 16.7891 19.8999 16.7891C16.4371 16.7891 13.6299 19.5962 13.6299 23.0591C13.6299 26.5219 16.4371 29.3291 19.8999 29.3291Z" fill="white"/>
    <path d="M20.16 22.6983C19.59 21.1283 19.27 19.4283 19.27 17.6583C19.27 9.55828 25.84 2.98828 33.94 2.98828C42.04 2.98828 48.61 9.55828 48.61 17.6583C48.61 20.0683 48.03 22.3383 47 24.3383" stroke="#142746" stroke-width="6" stroke-miterlimit="10" stroke-linecap="round"/>
  </g>
  <defs>
    <clipPath id="clip0_331_25407">
      <rect width="50.7" height="56" fill="white" transform="translate(0.899902)"/>
    </clipPath>
  </defs>
</svg>