<svg xmlns="http://www.w3.org/2000/svg" width="57" height="56" viewBox="0 0 57 56" fill="none">
  <g clip-path="url(#clip0_331_25419)">
    <path d="M35.2698 26.9308L35.9498 20.8008L29.8198 21.4808C23.7898 22.1508 18.1698 24.8508 13.8898 29.1408C9.5998 33.4308 6.8998 39.0508 6.2298 45.0708L5.5498 51.2008L11.6798 50.5208C17.7098 49.8508 23.3298 47.1508 27.6098 42.8608C31.8998 38.5708 34.5998 32.9508 35.2698 26.9308Z" fill="#FFC13C"/>
    <path d="M29.09 30.7895L29.48 27.2695L25.96 27.6595C22.5 28.0395 19.27 29.5995 16.81 32.0595C14.35 34.5195 12.8 37.7495 12.41 41.2095L12.02 44.7295L15.54 44.3395C19 43.9595 22.23 42.3995 24.69 39.9395C27.15 37.4795 28.7 34.2495 29.09 30.7895Z" fill="white"/>
    <path d="M0.75 24.0017L11.95 25.6017L20.75 16.8017C18.44 14.4917 14.8 14.1717 12.12 16.0417L0.75 24.0017Z" fill="#142746"/>
    <path d="M31.1499 44.8L32.7499 56L40.7099 44.63C42.5899 41.95 42.2699 38.31 39.9499 36L31.1499 44.8Z" fill="#142746"/>
    <path d="M55.71 9.36L56.75 0L47.39 1.04C34.99 2.42 23.7 8.86 16.21 18.85L8.75 28.8L27.95 48L37.9 40.54C47.88 33.05 54.33 21.77 55.71 9.36Z" fill="#FF5436"/>
    <path d="M16.75 40.0002C16.91 38.0502 17.5 36.3402 18.5 34.9902L22.16 29.9902C23.64 27.9602 25.98 26.7602 28.89 26.5302L30.35 26.4102L30.23 27.8702C29.99 30.7902 28.79 33.1202 26.77 34.6002L21.77 38.2602C20.41 39.2602 18.71 39.8502 16.76 40.0102L16.75 40.0002Z" fill="#142746"/>
    <path d="M41.8899 21.1419C39.9399 23.0919 36.7699 23.0919 34.8199 21.1419C32.8699 19.1919 32.8699 16.0219 34.8199 14.0719C36.7699 12.1219 39.9399 12.1219 41.8899 14.0719C43.8399 16.0219 43.8399 19.1919 41.8899 21.1419Z" fill="white"/>
  </g>
  <defs>
    <clipPath id="clip0_331_25419">
      <rect width="56" height="56" fill="white" transform="translate(0.75)"/>
    </clipPath>
  </defs>
</svg>