<svg xmlns="http://www.w3.org/2000/svg" width="24" height="24" viewBox="0 0 24 24" fill="none">
  <path d="M12.3151 19.5C15.4741 19.5 17.4331 17.8695 17.4331 15.2655C17.4331 13.3065 15.9571 11.841 13.9471 11.6865V11.604C14.7169 11.4881 15.4199 11.1009 15.9293 10.5123C16.4387 9.92368 16.7209 9.1724 16.7251 8.39398C16.7251 6.12898 14.9821 4.70398 12.2041 4.70398H5.76465V19.5H12.3151ZM8.86215 7.01098H11.4061C12.8506 7.01098 13.6816 7.68748 13.6816 8.87698C13.6816 10.128 12.7381 10.857 11.0866 10.857H8.86215V7.00948V7.01098ZM8.86215 17.193V12.897H11.4571C13.2826 12.897 14.2771 13.635 14.2771 15.0195C14.2771 16.434 13.3126 17.193 11.5291 17.193H8.86065H8.86215Z" fill="#383838"/>
</svg>