<svg width="18" height="15" viewBox="0 0 18 15" fill="none" xmlns="http://www.w3.org/2000/svg">
<g id="text-color">
<path id="Vector" d="M18 12H0V15H18V12Z" fill="#222F3E"/>
<path id="shape" fill-rule="evenodd" clip-rule="evenodd" d="M5.65984 10H4.92188C4.64573 10 4.42188 9.77614 4.42188 9.5C4.42188 9.45134 4.42898 9.40294 4.44296 9.35633L7.14296 0.356326C7.20641 0.144834 7.40107 0 7.62187 0H10.3778C10.5986 0 10.7933 0.144834 10.8568 0.356326L13.5568 9.35633C13.6361 9.62082 13.486 9.89956 13.2215 9.97891C13.1749 9.9929 13.1265 10 13.0778 10H12.3399C12.1194 10 11.925 9.85562 11.8612 9.64459L11.1697 7.35541C11.106 7.14438 10.9115 7 10.6911 7H7.30863C7.08818 7 6.89375 7.14438 6.83 7.35541L6.13847 9.64459C6.07472 9.85562 5.88029 10 5.65984 10ZM8.33 2.35541L7.72583 4.35541C7.64598 4.61976 7.79553 4.89878 8.05988 4.97864C8.10677 4.9928 8.15548 5 8.20447 5H9.79525C10.0714 5 10.2953 4.77614 10.2953 4.5C10.2953 4.45102 10.2881 4.4023 10.2739 4.35541L9.66972 2.35541C9.60597 2.14438 9.41154 2 9.19109 2H8.80863C8.58818 2 8.39375 2.14438 8.33 2.35541Z" fill="#222F3E"/>
</g>
</svg>
