<svg width="32" height="24" viewBox="0 0 32 24" fill="none" xmlns="http://www.w3.org/2000/svg">
<path d="M11.5215 18.26L11.5215 18.2592L11.5015 5.74C11.5015 5.73988 11.5015 5.73976 11.5015 5.73964C11.5015 5.59608 11.537 5.54362 11.5442 5.53444C11.553 5.52904 11.6067 5.5 11.7615 5.5H16.7802C18.2864 5.5 19.3132 5.80802 19.9517 6.33548C20.591 6.86361 20.9202 7.57897 20.9202 8.54C20.9202 9.09301 20.7486 9.60642 20.3885 10.0923C20.0216 10.5873 19.5818 10.9207 19.0668 11.111L18.6464 11.2664L18.7551 11.7013L18.7751 11.7813L18.8541 12.0974L19.1752 12.1527C19.4718 12.2039 19.8116 12.3471 20.1969 12.612C20.5623 12.8633 20.8755 13.1944 21.1352 13.6134C21.3757 14.0015 21.5002 14.4456 21.5002 14.96C21.5002 16.163 21.1177 17.0084 20.4067 17.5805C19.6787 18.1663 18.544 18.5 16.9202 18.5H11.7615C11.6178 18.5 11.5661 18.4731 11.5553 18.4662C11.5484 18.4554 11.5215 18.4037 11.5215 18.26ZM13.2802 6.72H12.7802V7.22V10.74V11.24H13.2802H16.7298C17.4993 11.24 18.1725 11.0485 18.6984 10.6163C19.2237 10.1846 19.5015 9.61465 19.5015 8.94C19.5015 8.24644 19.2652 7.65253 18.7354 7.25137C18.2318 6.87008 17.5358 6.72 16.7298 6.72H13.2802ZM13.2802 12.48H12.7802V12.98V16.76V17.26H13.2802H17.3197C18.1178 17.26 18.81 17.0731 19.3224 16.6272C19.8449 16.1724 20.0802 15.5382 20.0802 14.8C20.0802 14.0648 19.7889 13.4557 19.1976 13.0407C18.6329 12.6445 17.8734 12.48 16.9848 12.48H13.2802Z" fill="#222F3E" stroke="#222F3E"/>
</svg>
