<svg width="24" height="24" viewBox="0 0 24 24" fill="none" xmlns="http://www.w3.org/2000/svg">
<path d="M9.4995 8.52895C9.4995 8.99395 9.624 9.40045 9.9045 9.74995H7.749C7.64703 9.37864 7.59705 8.99498 7.6005 8.60995C7.6005 6.16945 9.7545 4.45795 12.8205 4.45795C15.774 4.45795 17.9055 6.22045 17.988 8.73295H16.143C15.978 7.11295 14.697 6.11845 12.768 6.11845C10.923 6.11845 9.498 7.02145 9.498 8.52895H9.4995ZM12.7905 19.7459C9.561 19.7459 7.407 18.0854 7.233 15.5309H9.078C9.294 17.1209 10.7715 18.0854 12.894 18.0854C14.904 18.0854 16.359 17.0279 16.359 15.5729C16.359 14.3324 15.5385 13.5119 13.488 13.0604L12.069 12.7499H1.5V11.2499H22.5V12.7499H17.244C17.946 13.4054 18.2565 14.2409 18.2565 15.2954C18.2565 18.0344 16.1025 19.7459 12.7905 19.7459Z" fill="#383838"/>
</svg>
