<svg width="32" height="24" viewBox="0 0 32 24" fill="none" xmlns="http://www.w3.org/2000/svg">
<path d="M15.8038 16.6994L15.8036 16.7003C15.7472 16.9699 15.7051 17.2073 15.7051 17.3594C15.7051 17.5705 15.7536 17.779 15.867 17.9675C15.9799 18.1552 16.1407 18.2957 16.3241 18.3973C16.3948 18.4365 16.4701 18.4706 16.5494 18.5H13.3757C13.5811 18.4283 13.7716 18.331 13.9441 18.2049C14.3903 17.8785 14.6593 17.4009 14.7802 16.8281C14.7802 16.828 14.7802 16.8279 14.7803 16.8278L16.8602 7.02369L16.8604 7.02293C16.9138 6.76908 16.9492 6.54141 16.9492 6.36328C16.9492 6.15219 16.9007 5.94369 16.7873 5.75518C16.6744 5.56748 16.5136 5.42693 16.3302 5.32534C16.2595 5.28614 16.1842 5.25207 16.1049 5.22266H19.1804C18.9632 5.29789 18.7684 5.40298 18.6036 5.54482C18.2171 5.87736 17.9868 6.34706 17.8738 6.89601C17.8737 6.89647 17.8736 6.89694 17.8735 6.89741L15.8038 16.6994Z" fill="#222F3E" stroke="#222F3E"/>
</svg>
