<svg width="130" height="27" viewBox="0 0 130 27" fill="none" xmlns="http://www.w3.org/2000/svg">
<g clip-path="url(#clip0_2_25)">
<path d="M124.232 6.6156H118.464V18.716H120.894V9.04573H124.232C126.074 9.04573 127.57 10.5446 127.57 12.3835V18.716H130V12.3835C130 9.20241 127.413 6.6156 124.232 6.6156Z" fill="#262626"/>
<path d="M49.0077 6.6156C45.67 6.6156 42.9561 9.32954 42.9561 12.6673C42.9561 16.005 45.67 18.7189 49.0077 18.7189C52.3455 18.7189 55.0594 16.005 55.0594 12.6673C55.0594 9.32954 52.3455 6.6156 49.0077 6.6156ZM49.0077 16.2888C47.0122 16.2888 45.3862 14.6628 45.3862 12.6673C45.3862 10.6717 47.0122 9.04573 49.0077 9.04573C51.0033 9.04573 52.6293 10.6717 52.6293 12.6673C52.6293 14.6628 51.0033 16.2888 49.0077 16.2888Z" fill="#262626"/>
<path d="M71.1952 8.34216C70.5477 8.34216 70.0215 8.86839 70.0215 9.51584C70.0215 10.1633 70.5477 10.6895 71.1952 10.6895C71.8426 10.6895 72.3688 10.1633 72.3688 9.51584C72.3688 8.86839 71.8426 8.34216 71.1952 8.34216Z" fill="#262626"/>
<path d="M71.1952 14.6953C70.5477 14.6953 70.0215 15.2215 70.0215 15.869C70.0215 16.5164 70.5477 17.0427 71.1952 17.0427C71.8426 17.0427 72.3688 16.5164 72.3688 15.869C72.3688 15.2215 71.8426 14.6953 71.1952 14.6953Z" fill="#262626"/>
<path d="M38.4886 11.4759H31.6269V6.66882H29.1968V18.713H31.6269V13.906H38.4886V18.713H40.9187V6.66882H38.4886V11.4759Z" fill="#262626"/>
<path d="M84.0521 11.4759H77.1904V6.66882H74.7603V18.713H77.1904V13.906H84.0521V18.713H86.4822V6.66882H84.0521V11.4759Z" fill="#262626"/>
<path d="M98.787 7.8218C97.7759 7.06497 96.5224 6.6156 95.1654 6.6156C91.8277 6.6156 89.1138 9.32954 89.1138 12.6673C89.1138 16.005 91.8277 18.7189 95.1654 18.7189C96.5224 18.7189 97.7759 18.2696 98.787 17.5127V18.716H101.217V6.66882H98.787V7.8218ZM95.1654 16.2888C93.1699 16.2888 91.5439 14.6628 91.5439 12.6673C91.5439 10.6717 93.1699 9.04573 95.1654 9.04573C97.161 9.04573 98.787 10.6717 98.787 12.6673C98.787 14.6628 97.161 16.2888 95.1654 16.2888Z" fill="#262626"/>
<path d="M113.075 7.8218C112.064 7.06497 110.81 6.6156 109.454 6.6156C106.116 6.6156 103.402 9.32954 103.402 12.6673C103.402 16.005 106.116 18.7189 109.454 18.7189C110.81 18.7189 112.064 18.2696 113.075 17.5127V18.716H115.505V6.66882H113.075V7.8218ZM109.454 16.2888C107.458 16.2888 105.832 14.6628 105.832 12.6673C105.832 10.6717 107.458 9.04573 109.454 9.04573C111.449 9.04573 113.075 10.6717 113.075 12.6673C113.075 14.6628 111.449 16.2888 109.454 16.2888Z" fill="#262626"/>
<path d="M55.7422 9.04573H60.5138V18.713H62.9439V9.04573H67.7125V6.6156H55.7422V9.04573Z" fill="#262626"/>
<path d="M17.0049 6.5713L10.2112 3.39026L9.9126 9.99477L13.5046 15.5084H17.336L18.0308 10.8787L17.5164 6.87876L17.0049 6.5713Z" fill="url(#paint0_linear_2_25)"/>
<path d="M17.7325 14.4144L17.0052 13.0752L12.6416 11.0323L12.9638 14.784L13.2536 15.4935L17.7325 14.4144Z" fill="url(#paint1_linear_2_25)"/>
<path d="M3.39695 6.5713L10.2114 3.39026L10.1995 9.75826L6.89728 15.5084H3.06584L2.37109 10.8787L2.8855 6.87876L3.39695 6.5713Z" fill="url(#paint2_linear_2_25)"/>
<path d="M2.66357 14.4144L3.39084 13.0752L7.75443 11.0323L7.43218 14.784L7.14246 15.4935L2.66357 14.4144Z" fill="url(#paint3_linear_2_25)"/>
<path d="M17.0048 23.2805L13.605 21.6871V17.492L17.0048 15.8098V23.2805Z" fill="url(#paint4_linear_2_25)"/>
<path d="M3.3999 23.2806L6.80267 21.6871V17.359L3.3999 15.6709V23.2806Z" fill="url(#paint5_linear_2_25)"/>
<path d="M10.2025 9.75824L13.6053 8.16477L10.2025 6.57129L6.80273 8.16477L10.2025 9.75824Z" fill="url(#paint6_linear_2_25)"/>
<path d="M13.6054 24.8741V18.1838L17.0052 16.4958V23.2806L20.408 21.6871V4.97778L17.0052 6.57126V13.0871L13.6054 14.6953V8.16474L10.2026 9.75822V26.4676L13.6054 24.8741Z" fill="url(#paint7_linear_2_25)"/>
<path d="M3.39981 23.2806V16.5017L6.80258 18.1868V24.8741L10.2024 26.4676V9.75822L6.80258 8.16474V14.7012L3.39981 13.093V6.57126L0 4.97778V21.6871L3.39981 23.2806Z" fill="url(#paint8_linear_2_25)"/>
<path d="M3.39981 6.57125L6.80258 4.97777L10.2113 3.3902L13.6052 4.97777L17.005 6.57125L20.4077 4.97777L17.005 3.38429L13.6111 1.79672L10.2113 0.203247L6.8085 1.79672L3.39981 3.38429L0 4.97777L3.39981 6.57125Z" fill="url(#paint9_linear_2_25)"/>
</g>
<defs>
<linearGradient id="paint0_linear_2_25" x1="18.0337" y1="9.44784" x2="9.9126" y2="9.44784" gradientUnits="userSpaceOnUse">
<stop offset="0.11" stop-color="#231995"/>
<stop offset="0.73" stop-color="#2B34BB"/>
<stop offset="0.84" stop-color="#2D3AC3"/>
</linearGradient>
<linearGradient id="paint1_linear_2_25" x1="12.6416" y1="13.2644" x2="17.7325" y2="13.2644" gradientUnits="userSpaceOnUse">
<stop offset="0.11" stop-color="#231995"/>
<stop offset="0.73" stop-color="#2B34BB"/>
<stop offset="0.84" stop-color="#2D3AC3"/>
</linearGradient>
<linearGradient id="paint2_linear_2_25" x1="10.2114" y1="9.44784" x2="2.37405" y2="9.44784" gradientUnits="userSpaceOnUse">
<stop offset="0.11" stop-color="#231995"/>
<stop offset="0.73" stop-color="#2B34BB"/>
<stop offset="0.84" stop-color="#2D3AC3"/>
</linearGradient>
<linearGradient id="paint3_linear_2_25" x1="2.66357" y1="13.2644" x2="7.75443" y2="13.2644" gradientUnits="userSpaceOnUse">
<stop offset="0.11" stop-color="#231995"/>
<stop offset="0.73" stop-color="#2B34BB"/>
<stop offset="0.84" stop-color="#2D3AC3"/>
</linearGradient>
<linearGradient id="paint4_linear_2_25" x1="17.0078" y1="19.5467" x2="13.605" y2="19.5467" gradientUnits="userSpaceOnUse">
<stop offset="0.11" stop-color="#231995"/>
<stop offset="0.73" stop-color="#2B34BB"/>
<stop offset="0.84" stop-color="#2D3AC3"/>
</linearGradient>
<linearGradient id="paint5_linear_2_25" x1="6.80267" y1="19.4757" x2="3.40286" y2="19.4757" gradientUnits="userSpaceOnUse">
<stop offset="0.11" stop-color="#231995"/>
<stop offset="0.73" stop-color="#2B34BB"/>
<stop offset="0.84" stop-color="#2D3AC3"/>
</linearGradient>
<linearGradient id="paint6_linear_2_25" x1="4.40808" y1="8.16477" x2="14.9298" y2="8.16477" gradientUnits="userSpaceOnUse">
<stop stop-color="#00E5FF"/>
<stop offset="0.24" stop-color="#57D8FF"/>
<stop offset="0.52" stop-color="#B8CAFF"/>
<stop offset="0.62" stop-color="#A8D9FF"/>
<stop offset="0.83" stop-color="#8EF3FF"/>
<stop offset="0.96" stop-color="#85FDFF"/>
</linearGradient>
<linearGradient id="paint7_linear_2_25" x1="25.4161" y1="22.917" x2="3.40892" y2="7.26009" gradientUnits="userSpaceOnUse">
<stop stop-color="#FF82D0"/>
<stop offset="0.2" stop-color="#FF6EC0"/>
<stop offset="0.37" stop-color="#FF64B8"/>
<stop offset="0.52" stop-color="#A254C8"/>
<stop offset="0.67" stop-color="#4B45D7"/>
<stop offset="0.78" stop-color="#153CE1"/>
<stop offset="0.84" stop-color="#0039E5"/>
</linearGradient>
<linearGradient id="paint8_linear_2_25" x1="11.7161" y1="24.6139" x2="-2.81445" y2="5.08125" gradientUnits="userSpaceOnUse">
<stop stop-color="#E5C8FD"/>
<stop offset="0.08" stop-color="#D4C2FD"/>
<stop offset="0.52" stop-color="#74A3FF"/>
<stop offset="0.63" stop-color="#4E8BF5"/>
<stop offset="0.78" stop-color="#2371EB"/>
<stop offset="0.89" stop-color="#0961E5"/>
<stop offset="0.96" stop-color="#005BE3"/>
</linearGradient>
<linearGradient id="paint9_linear_2_25" x1="20.4077" y1="3.38725" x2="0" y2="3.38725" gradientUnits="userSpaceOnUse">
<stop stop-color="#00E5FF"/>
<stop offset="0.24" stop-color="#57D8FF"/>
<stop offset="0.52" stop-color="#B8CAFF"/>
<stop offset="0.62" stop-color="#A8D9FF"/>
<stop offset="0.83" stop-color="#8EF3FF"/>
<stop offset="0.96" stop-color="#85FDFF"/>
</linearGradient>
<clipPath id="clip0_2_25">
<rect width="130" height="26.2643" fill="white" transform="translate(0 0.203247)"/>
</clipPath>
</defs>
</svg>
