<svg width="130" height="27" viewBox="0 0 130 27" fill="none" xmlns="http://www.w3.org/2000/svg">
<g clip-path="url(#clip0_2_23)">
<path d="M124.232 6.41235H118.464V18.5127H120.894V8.84248H124.232C126.074 8.84248 127.57 10.3414 127.57 12.1802V18.5127H130V12.1802C130 8.99917 127.413 6.41235 124.232 6.41235Z" fill="white"/>
<path d="M49.0077 6.41235C45.67 6.41235 42.9561 9.12629 42.9561 12.464C42.9561 15.8018 45.67 18.5157 49.0077 18.5157C52.3455 18.5157 55.0594 15.8018 55.0594 12.464C55.0594 9.12629 52.3455 6.41235 49.0077 6.41235ZM49.0077 16.0856C47.0122 16.0856 45.3862 14.4596 45.3862 12.464C45.3862 10.4685 47.0122 8.84248 49.0077 8.84248C51.0033 8.84248 52.6293 10.4685 52.6293 12.464C52.6293 14.4596 51.0033 16.0856 49.0077 16.0856Z" fill="white"/>
<path d="M71.1952 8.13892C70.5477 8.13892 70.0215 8.66515 70.0215 9.31259C70.0215 9.96003 70.5477 10.4863 71.1952 10.4863C71.8426 10.4863 72.3688 9.96003 72.3688 9.31259C72.3688 8.66515 71.8426 8.13892 71.1952 8.13892Z" fill="white"/>
<path d="M71.1952 14.4921C70.5477 14.4921 70.0215 15.0183 70.0215 15.6657C70.0215 16.3132 70.5477 16.8394 71.1952 16.8394C71.8426 16.8394 72.3688 16.3132 72.3688 15.6657C72.3688 15.0183 71.8426 14.4921 71.1952 14.4921Z" fill="white"/>
<path d="M38.4886 11.2726H31.6269V6.46558H29.1968V18.5098H31.6269V13.7027H38.4886V18.5098H40.9187V6.46558H38.4886V11.2726Z" fill="white"/>
<path d="M84.0521 11.2726H77.1904V6.46558H74.7603V18.5098H77.1904V13.7027H84.0521V18.5098H86.4822V6.46558H84.0521V11.2726Z" fill="white"/>
<path d="M98.787 7.61855C97.7759 6.86172 96.5224 6.41235 95.1654 6.41235C91.8277 6.41235 89.1138 9.12629 89.1138 12.464C89.1138 15.8018 91.8277 18.5157 95.1654 18.5157C96.5224 18.5157 97.7759 18.0663 98.787 17.3095V18.5127H101.217V6.46557H98.787V7.61855ZM95.1654 16.0856C93.1699 16.0856 91.5439 14.4596 91.5439 12.464C91.5439 10.4685 93.1699 8.84248 95.1654 8.84248C97.161 8.84248 98.787 10.4685 98.787 12.464C98.787 14.4596 97.161 16.0856 95.1654 16.0856Z" fill="white"/>
<path d="M113.075 7.61855C112.064 6.86172 110.81 6.41235 109.454 6.41235C106.116 6.41235 103.402 9.12629 103.402 12.464C103.402 15.8018 106.116 18.5157 109.454 18.5157C110.81 18.5157 112.064 18.0663 113.075 17.3095V18.5127H115.505V6.46557H113.075V7.61855ZM109.454 16.0856C107.458 16.0856 105.832 14.4596 105.832 12.464C105.832 10.4685 107.458 8.84248 109.454 8.84248C111.449 8.84248 113.075 10.4685 113.075 12.464C113.075 14.4596 111.449 16.0856 109.454 16.0856Z" fill="white"/>
<path d="M55.7422 8.84248H60.5138V18.5098H62.9439V8.84248H67.7125V6.41235H55.7422V8.84248Z" fill="white"/>
<path d="M17.0049 6.36805L10.2112 3.18701L9.9126 9.79152L13.5046 15.3051H17.336L18.0308 10.6755L17.5164 6.67552L17.0049 6.36805Z" fill="url(#paint0_linear_2_23)"/>
<path d="M17.7325 14.2112L17.0052 12.8719L12.6416 10.8291L12.9638 14.5807L13.2536 15.2902L17.7325 14.2112Z" fill="url(#paint1_linear_2_23)"/>
<path d="M3.39695 6.36805L10.2114 3.18701L10.1995 9.55501L6.89728 15.3051H3.06584L2.37109 10.6755L2.8855 6.67552L3.39695 6.36805Z" fill="url(#paint2_linear_2_23)"/>
<path d="M2.66357 14.2112L3.39084 12.8719L7.75443 10.8291L7.43218 14.5807L7.14246 15.2902L2.66357 14.2112Z" fill="url(#paint3_linear_2_23)"/>
<path d="M17.0048 23.0773L13.605 21.4838V17.2887L17.0048 15.6066V23.0773Z" fill="url(#paint4_linear_2_23)"/>
<path d="M3.3999 23.0773L6.80267 21.4838V17.1557L3.3999 15.4677V23.0773Z" fill="url(#paint5_linear_2_23)"/>
<path d="M10.2025 9.555L13.6053 7.96152L10.2025 6.36804L6.80273 7.96152L10.2025 9.555Z" fill="url(#paint6_linear_2_23)"/>
<path d="M13.6054 24.6708V17.9806L17.0052 16.2925V23.0774L20.408 21.4839V4.77454L17.0052 6.36801V12.8838L13.6054 14.4921V7.96149L10.2026 9.55497V26.2643L13.6054 24.6708Z" fill="url(#paint7_linear_2_23)"/>
<path d="M3.39981 23.0774V16.2984L6.80258 17.9836V24.6708L10.2024 26.2643V9.55497L6.80258 7.96149V14.498L3.39981 12.8897V6.36801L0 4.77454V21.4839L3.39981 23.0774Z" fill="url(#paint8_linear_2_23)"/>
<path d="M3.39981 6.368L6.80258 4.77452L10.2113 3.18696L13.6052 4.77452L17.005 6.368L20.4077 4.77452L17.005 3.18104L13.6111 1.59348L10.2113 0L6.8085 1.59348L3.39981 3.18104L0 4.77452L3.39981 6.368Z" fill="url(#paint9_linear_2_23)"/>
</g>
<defs>
<linearGradient id="paint0_linear_2_23" x1="18.0337" y1="9.24459" x2="9.9126" y2="9.24459" gradientUnits="userSpaceOnUse">
<stop offset="0.11" stop-color="#231995"/>
<stop offset="0.73" stop-color="#2B34BB"/>
<stop offset="0.84" stop-color="#2D3AC3"/>
</linearGradient>
<linearGradient id="paint1_linear_2_23" x1="12.6416" y1="13.0612" x2="17.7325" y2="13.0612" gradientUnits="userSpaceOnUse">
<stop offset="0.11" stop-color="#231995"/>
<stop offset="0.73" stop-color="#2B34BB"/>
<stop offset="0.84" stop-color="#2D3AC3"/>
</linearGradient>
<linearGradient id="paint2_linear_2_23" x1="10.2114" y1="9.24459" x2="2.37405" y2="9.24459" gradientUnits="userSpaceOnUse">
<stop offset="0.11" stop-color="#231995"/>
<stop offset="0.73" stop-color="#2B34BB"/>
<stop offset="0.84" stop-color="#2D3AC3"/>
</linearGradient>
<linearGradient id="paint3_linear_2_23" x1="2.66357" y1="13.0612" x2="7.75443" y2="13.0612" gradientUnits="userSpaceOnUse">
<stop offset="0.11" stop-color="#231995"/>
<stop offset="0.73" stop-color="#2B34BB"/>
<stop offset="0.84" stop-color="#2D3AC3"/>
</linearGradient>
<linearGradient id="paint4_linear_2_23" x1="17.0078" y1="19.3434" x2="13.605" y2="19.3434" gradientUnits="userSpaceOnUse">
<stop offset="0.11" stop-color="#231995"/>
<stop offset="0.73" stop-color="#2B34BB"/>
<stop offset="0.84" stop-color="#2D3AC3"/>
</linearGradient>
<linearGradient id="paint5_linear_2_23" x1="6.80267" y1="19.2725" x2="3.40286" y2="19.2725" gradientUnits="userSpaceOnUse">
<stop offset="0.11" stop-color="#231995"/>
<stop offset="0.73" stop-color="#2B34BB"/>
<stop offset="0.84" stop-color="#2D3AC3"/>
</linearGradient>
<linearGradient id="paint6_linear_2_23" x1="4.40808" y1="7.96152" x2="14.9298" y2="7.96152" gradientUnits="userSpaceOnUse">
<stop stop-color="#00E5FF"/>
<stop offset="0.24" stop-color="#57D8FF"/>
<stop offset="0.52" stop-color="#B8CAFF"/>
<stop offset="0.62" stop-color="#A8D9FF"/>
<stop offset="0.83" stop-color="#8EF3FF"/>
<stop offset="0.96" stop-color="#85FDFF"/>
</linearGradient>
<linearGradient id="paint7_linear_2_23" x1="25.4161" y1="22.7137" x2="3.40892" y2="7.05684" gradientUnits="userSpaceOnUse">
<stop stop-color="#FF82D0"/>
<stop offset="0.2" stop-color="#FF6EC0"/>
<stop offset="0.37" stop-color="#FF64B8"/>
<stop offset="0.52" stop-color="#A254C8"/>
<stop offset="0.67" stop-color="#4B45D7"/>
<stop offset="0.78" stop-color="#153CE1"/>
<stop offset="0.84" stop-color="#0039E5"/>
</linearGradient>
<linearGradient id="paint8_linear_2_23" x1="11.7161" y1="24.4107" x2="-2.81445" y2="4.87801" gradientUnits="userSpaceOnUse">
<stop stop-color="#E5C8FD"/>
<stop offset="0.08" stop-color="#D4C2FD"/>
<stop offset="0.52" stop-color="#74A3FF"/>
<stop offset="0.63" stop-color="#4E8BF5"/>
<stop offset="0.78" stop-color="#2371EB"/>
<stop offset="0.89" stop-color="#0961E5"/>
<stop offset="0.96" stop-color="#005BE3"/>
</linearGradient>
<linearGradient id="paint9_linear_2_23" x1="20.4077" y1="3.184" x2="0" y2="3.184" gradientUnits="userSpaceOnUse">
<stop stop-color="#00E5FF"/>
<stop offset="0.24" stop-color="#57D8FF"/>
<stop offset="0.52" stop-color="#B8CAFF"/>
<stop offset="0.62" stop-color="#A8D9FF"/>
<stop offset="0.83" stop-color="#8EF3FF"/>
<stop offset="0.96" stop-color="#85FDFF"/>
</linearGradient>
<clipPath id="clip0_2_23">
<rect width="130" height="26.2643" fill="white"/>
</clipPath>
</defs>
</svg>
