<svg width="98" height="98" viewBox="0 0 98 98" fill="none" xmlns="http://www.w3.org/2000/svg">
<g id="Group">
<g id="_&#234;&#178;&#169;&#235;&#166;&#172;_&#235;&#170;&#168;&#235;&#147;&#156;">
<g id="Group 11" filter="url(#filter0_d_190_3743)">
<path id="Vector" d="M23.3633 71.7881V74.6933C23.3633 78.8103 26.8209 82.272 30.9379 82.272H69.8431C73.9601 82.272 77.2342 78.8082 77.2342 74.6933V71.7881H23.3633Z" fill="white"/>
<path id="Vector_2" d="M77.2342 18.7495C77.2342 14.6326 73.958 11.5459 69.8431 11.5459H30.9379C26.8209 11.5459 23.3633 14.6326 23.3633 18.7495V71.7878H77.2342V18.7495Z" fill="url(#paint0_linear_190_3743)"/>
<path id="Vector_3" d="M52.5205 76.5239C52.5205 77.9473 51.3673 79.1026 49.9419 79.1026C48.5165 79.1026 47.3633 77.9493 47.3633 76.5239C47.3633 75.0985 48.5165 73.9453 49.9419 73.9453C51.3673 73.9453 52.5205 75.0985 52.5205 76.5239Z" fill="url(#paint1_linear_190_3743)"/>
</g>
</g>
</g>
<defs>
<filter id="filter0_d_190_3743" x="9.36328" y="1.5459" width="81.8711" height="98.7256" filterUnits="userSpaceOnUse" color-interpolation-filters="sRGB">
<feFlood flood-opacity="0" result="BackgroundImageFix"/>
<feColorMatrix in="SourceAlpha" type="matrix" values="0 0 0 0 0 0 0 0 0 0 0 0 0 0 0 0 0 0 127 0" result="hardAlpha"/>
<feOffset dy="4"/>
<feGaussianBlur stdDeviation="7"/>
<feComposite in2="hardAlpha" operator="out"/>
<feColorMatrix type="matrix" values="0 0 0 0 0.698039 0 0 0 0 0.870588 0 0 0 0 1 0 0 0 1 0"/>
<feBlend mode="normal" in2="BackgroundImageFix" result="effect1_dropShadow_190_3743"/>
<feBlend mode="normal" in="SourceGraphic" in2="effect1_dropShadow_190_3743" result="shape"/>
</filter>
<linearGradient id="paint0_linear_190_3743" x1="23.3633" y1="11.5459" x2="76.3364" y2="71.7878" gradientUnits="userSpaceOnUse">
<stop stop-color="#56C0FE"/>
<stop offset="1" stop-color="#6D0EE6"/>
</linearGradient>
<linearGradient id="paint1_linear_190_3743" x1="47.2773" y1="79.1026" x2="52.4346" y2="79.1026" gradientUnits="userSpaceOnUse">
<stop stop-color="#56C0FE"/>
<stop offset="1" stop-color="#6D0EE6"/>
</linearGradient>
</defs>
</svg>
