<svg width="24" height="24" viewBox="0 0 24 24" fill="none" xmlns="http://www.w3.org/2000/svg">
<path d="M5 20.9985H19V18.9985H5V20.9985ZM12 16.9985C13.5913 16.9985 15.1174 16.3663 16.2426 15.2411C17.3679 14.1159 18 12.5898 18 10.9985V2.99847H15.5V10.9985C15.5 11.9267 15.1313 12.817 14.4749 13.4733C13.8185 14.1297 12.9283 14.4985 12 14.4985C11.0717 14.4985 10.1815 14.1297 9.52513 13.4733C8.86875 12.817 8.5 11.9267 8.5 10.9985V2.99847H6V10.9985C6 12.5898 6.63214 14.1159 7.75736 15.2411C8.88258 16.3663 10.4087 16.9985 12 16.9985Z" fill="#383838"/>
</svg>
