<svg width="60" height="61" viewBox="0 0 60 61" fill="none" xmlns="http://www.w3.org/2000/svg">
<rect y="0.5" width="60" height="60" rx="30" fill="#ECD246"/>
<g clip-path="url(#clip0_577_16909)">
<path d="M30 19.4756C23.3724 19.4756 18 23.7228 18 28.9622C18 32.3726 20.2765 35.361 23.6926 37.0333C23.4414 37.9707 22.7837 40.4282 22.6519 40.9541C22.4897 41.6069 22.8913 41.5982 23.1542 41.4222C23.3606 41.2848 26.4428 39.1898 27.7726 38.2853C28.4943 38.3922 29.2385 38.4488 30 38.4488C36.6276 38.4488 42 34.201 42 28.9622C42 23.7234 36.6276 19.4756 30 19.4756Z" fill="white"/>
<path d="M25.0475 26.168H21.5382C21.2081 26.168 20.9414 26.4353 20.9414 26.7648C20.9414 27.0942 21.2087 27.3616 21.5382 27.3616H22.679V31.5653C22.679 31.7182 22.7411 31.8686 22.8505 31.9774C22.9575 32.0856 23.1073 32.1478 23.2608 32.1478H23.3883C23.5412 32.1478 23.6904 32.0856 23.798 31.9774C23.9074 31.8686 23.9695 31.7188 23.9695 31.5653V27.3616H25.0469C25.377 27.3616 25.6443 27.0942 25.6443 26.7648C25.6443 26.4353 25.377 26.168 25.0469 26.168H25.0475Z" fill="#ECD246"/>
<path d="M33.4809 31.026H31.849V26.7327C31.849 26.3747 31.5593 26.085 31.2018 26.085C30.8444 26.085 30.5547 26.3747 30.5547 26.7327V31.3604C30.5547 31.3965 30.559 31.43 30.5646 31.4642C30.5584 31.4978 30.5547 31.5326 30.5547 31.5674C30.5547 31.8671 30.7965 32.1095 31.0962 32.1095H33.4809C33.7811 32.1095 34.0223 31.8671 34.0223 31.5674C34.0223 31.2678 33.7805 31.026 33.4809 31.026Z" fill="#ECD246"/>
<path d="M38.6954 31.223L36.877 28.8346L38.5201 27.1909C38.7426 26.969 38.7426 26.6078 38.5201 26.3852C38.2975 26.1627 37.937 26.1627 37.7138 26.3852L35.6797 28.4193V26.7327C35.6797 26.3747 35.39 26.085 35.0325 26.085C34.6751 26.085 34.3848 26.3747 34.3848 26.7327V31.5028C34.3848 31.8609 34.6745 32.1505 35.0325 32.1505C35.3906 32.1505 35.6797 31.8615 35.6797 31.5028V30.0313L36.0496 29.662L37.7697 31.9193C37.9612 32.1748 38.3249 32.2276 38.5804 32.0343C38.8359 31.8422 38.8875 31.4791 38.6954 31.223Z" fill="#ECD246"/>
<path d="M30.0696 31.3775L28.3209 26.5931C28.3209 26.5931 28.3165 26.5894 28.3153 26.5875C28.2034 26.296 27.8807 26.084 27.4959 26.084C27.0688 26.084 26.7157 26.3451 26.6455 26.6864C26.6337 26.7119 26.6218 26.7374 26.6119 26.7647L24.8924 31.3775C24.7861 31.6802 24.9452 32.0109 25.2467 32.1172C25.5488 32.2235 25.8802 32.0644 25.9865 31.7623L26.2843 30.9131H28.6777L28.9748 31.7623C29.0811 32.0644 29.4125 32.2235 29.7146 32.1172C30.0168 32.0109 30.1759 31.6802 30.0696 31.3775ZM26.6641 29.8283L27.4685 27.5331C27.4779 27.5331 27.4853 27.5356 27.4947 27.5356L28.2985 29.8283H26.6647H26.6641Z" fill="#ECD246"/>
</g>
<defs>
<clipPath id="clip0_577_16909">
<rect width="24" height="22.0486" fill="white" transform="translate(18 19.4756)"/>
</clipPath>
</defs>
</svg>
