<svg xmlns="http://www.w3.org/2000/svg" width="16" height="16" viewBox="0 0 16 16" fill="none">
  <path d="M15.0992 15.0989C14.9396 15.0989 14.7799 15.0382 14.6581 14.9163L0.932739 1.19104C0.689087 0.947266 0.689087 0.552368 0.932739 0.308716C1.17633 0.0650635 1.57147 0.0650635 1.81506 0.308716L15.5404 14.0341C15.7841 14.2776 15.7841 14.6725 15.5404 14.9163C15.4186 15.0382 15.2589 15.0989 15.0992 15.0989Z" fill="#C2C2C2"/>
  <path d="M1.53017 15.2554C1.3705 15.2554 1.21077 15.1945 1.08894 15.0726C0.845352 14.8287 0.845352 14.434 1.08894 14.1903L14.8143 0.464966C15.0579 0.221313 15.453 0.221313 15.6966 0.464966C15.9403 0.708618 15.9403 1.10352 15.6966 1.34729L1.97133 15.0726C1.84944 15.1945 1.68977 15.2554 1.53017 15.2554Z" fill="#C2C2C2"/>
</svg>