<svg xmlns="http://www.w3.org/2000/svg" width="20" height="20" viewBox="0 0 20 20" fill="none">
  <path d="M5.00016 18.3346H15.0002C15.4422 18.3346 15.8661 18.159 16.1787 17.8465C16.4912 17.5339 16.6668 17.11 16.6668 16.668V3.33464C16.6668 2.89261 16.4912 2.46868 16.1787 2.15612C15.8661 1.84356 15.4422 1.66797 15.0002 1.66797H5.00016C4.55814 1.66797 4.13421 1.84356 3.82165 2.15612C3.50909 2.46868 3.3335 2.89261 3.3335 3.33464V16.668C3.3335 17.11 3.50909 17.5339 3.82165 17.8465C4.13421 18.159 4.55814 18.3346 5.00016 18.3346ZM7.50016 15.8346H5.8335V14.168H7.50016V15.8346ZM7.50016 12.5013H5.8335V10.8346H7.50016V12.5013ZM7.50016 9.16797H5.8335V7.5013H7.50016V9.16797ZM10.8335 15.8346H9.16683V14.168H10.8335V15.8346ZM10.8335 12.5013H9.16683V10.8346H10.8335V12.5013ZM10.8335 9.16797H9.16683V7.5013H10.8335V9.16797ZM14.1668 15.8346H12.5002V10.8346H14.1668V15.8346ZM14.1668 9.16797H12.5002V7.5013H14.1668V9.16797ZM5.00016 3.33464H15.0002V5.83464H5.00016V3.33464Z" fill="#A9AAB8"/>
</svg>