<svg xmlns="http://www.w3.org/2000/svg" width="10" height="10" viewBox="0 0 10 10" fill="none">
  <path d="M1.25 6H0.75V6.5H1.25V6ZM9.60355 6.35355C9.79882 6.15829 9.79882 5.84171 9.60355 5.64645L6.42157 2.46447C6.22631 2.2692 5.90973 2.2692 5.71447 2.46447C5.5192 2.65973 5.5192 2.97631 5.71447 3.17157L8.54289 6L5.71447 8.82843C5.5192 9.02369 5.5192 9.34027 5.71447 9.53553C5.90973 9.7308 6.22631 9.7308 6.42157 9.53553L9.60355 6.35355ZM0.75 0V6H1.75V0H0.75ZM1.25 6.5H9.25V5.5H1.25V6.5Z" fill="#486284"/>
</svg>