<svg width="119" height="50" viewBox="0 0 119 50" fill="none" xmlns="http://www.w3.org/2000/svg">
<g id="Layer_2" clip-path="url(#clip0_658_23519)">
<path id="Vector" d="M117.153 18.1618C118.427 28.9261 110.733 38.6865 99.9692 39.9604L23.4465 49.0122C12.6822 50.286 2.92174 42.5924 1.64791 31.8281C0.37408 21.0638 8.06769 11.3034 18.832 10.038L95.3547 0.977746C106.119 -0.296086 115.879 7.39752 117.153 18.1618Z" stroke="#FF6CE0" stroke-width="2"/>
<path id="Vector_2" d="M35.1473 21.1491C36.2103 21.4612 37.1298 21.9336 37.8975 22.5916C38.6651 23.2496 39.2472 24.0089 39.6353 24.8862L36.0837 25.308C35.6957 24.785 35.1558 24.3969 34.4556 24.1185C33.7554 23.8486 32.9793 23.7642 32.1272 23.8655C31.2583 23.9667 30.5075 24.262 29.8495 24.7344C29.2 25.2152 28.7191 25.831 28.3985 26.5818C28.0864 27.3326 27.9768 28.1509 28.0864 29.0452C28.1876 29.9309 28.4829 30.7155 28.9638 31.3819C29.4446 32.0484 30.0604 32.5461 30.8028 32.8666C31.5452 33.1872 32.355 33.2969 33.2239 33.1956C33.9494 33.1113 34.5906 32.9004 35.1473 32.5714C35.7125 32.2424 36.1512 31.8375 36.4718 31.365C36.7923 30.8842 36.9864 30.4033 37.0454 29.8972L32.625 30.4202L32.3044 27.687L40.1752 26.759L40.2764 27.611C40.4451 29.0536 40.268 30.3949 39.7365 31.6266C39.205 32.8582 38.3952 33.879 37.3069 34.6719C36.2187 35.4649 34.9533 35.9542 33.5023 36.1229C32.0345 36.3001 30.6678 36.1229 29.4109 35.6083C28.1539 35.0937 27.1247 34.2923 26.3149 33.221C25.505 32.1412 25.0242 30.8842 24.847 29.4416C24.6783 27.9991 24.8554 26.6578 25.3869 25.4261C25.9184 24.1945 26.7367 23.1737 27.8333 22.3807C28.9385 21.5878 30.2207 21.0985 31.6886 20.9213C32.9202 20.7779 34.0675 20.8538 35.1305 21.166L35.1473 21.1491Z" fill="white"/>
<path id="Vector_3" d="M46.1563 33.6261C44.8909 33.1115 43.8448 32.3101 43.035 31.2387C42.2251 30.1673 41.7358 28.9019 41.5587 27.4594C41.3899 26.0168 41.5755 24.6755 42.107 23.4354C42.6469 22.2038 43.4736 21.183 44.5872 20.3816C45.7007 19.5802 46.9999 19.0993 48.4762 18.9222C49.9525 18.745 51.3275 18.9222 52.6013 19.4368C53.8667 19.9514 54.9128 20.7528 55.7227 21.8241C56.5325 22.8955 57.0218 24.1609 57.199 25.6035C57.3677 27.046 57.1821 28.3873 56.6506 29.6274C56.1107 30.8591 55.284 31.8798 54.1704 32.6812C53.0569 33.4827 51.7578 33.9635 50.2815 34.1407C48.7967 34.3178 47.4301 34.1407 46.1563 33.6261ZM52.2133 30.3445C52.8629 29.8552 53.3437 29.2309 53.6558 28.4717C53.968 27.704 54.0692 26.8857 53.968 25.9915C53.8583 25.0889 53.5715 24.3128 53.0906 23.6463C52.6098 22.9799 51.994 22.4906 51.2516 22.17C50.5008 21.8495 49.6994 21.7398 48.8305 21.841C47.9616 21.9422 47.2108 22.2375 46.5528 22.7268C45.9032 23.2076 45.4223 23.8319 45.1102 24.5911C44.7981 25.3504 44.6968 26.1771 44.7981 27.0798C44.8993 27.9655 45.1946 28.7501 45.6754 29.4165C46.1563 30.083 46.7721 30.5807 47.5145 30.9012C48.2568 31.2218 49.0667 31.3315 49.9356 31.2302C50.7961 31.129 51.5553 30.8338 52.2133 30.3529V30.3445Z" fill="white"/>
<path id="Vector_4" d="M63.0703 31.6274C61.8049 31.1128 60.7589 30.3114 59.949 29.24C59.1392 28.1686 58.6499 26.9033 58.4727 25.4607C58.304 24.0181 58.4896 22.6768 59.0211 21.4452C59.561 20.2135 60.3877 19.1928 61.5012 18.3914C62.6148 17.5899 63.9139 17.1091 65.3902 16.9319C66.8665 16.7548 68.2416 16.9319 69.5154 17.4465C70.7808 17.9611 71.8269 18.7625 72.6367 19.8339C73.4466 20.9053 73.9443 22.1707 74.113 23.6132C74.2817 25.0558 74.0961 26.3971 73.5647 27.6372C73.0248 28.8688 72.1981 29.8896 71.0845 30.691C69.971 31.4924 68.6718 31.9733 67.1955 32.1504C65.7108 32.3276 64.3442 32.1504 63.0703 31.6358V31.6274ZM69.1274 28.3458C69.7769 27.8565 70.2578 27.2323 70.5699 26.473C70.882 25.7138 70.9833 24.8871 70.882 23.9928C70.7724 23.0902 70.4856 22.3141 70.0047 21.6476C69.5239 20.9812 68.908 20.4919 68.1657 20.1713C67.4149 19.8508 66.6134 19.7411 65.7445 19.8423C64.8841 19.9436 64.1248 20.2388 63.4668 20.7281C62.8173 21.209 62.3364 21.8332 62.0243 22.5925C61.7121 23.3517 61.6109 24.1784 61.7121 25.0811C61.8134 25.9669 62.1086 26.7514 62.5895 27.4178C63.0703 28.0843 63.6862 28.582 64.4285 28.9026C65.1709 29.2231 65.9807 29.3328 66.8412 29.2316C67.7017 29.1303 68.4609 28.8351 69.1189 28.3542L69.1274 28.3458Z" fill="white"/>
<path id="Vector_5" d="M75.176 16.1473L80.7944 15.4809C82.3719 15.2953 83.7807 15.4387 85.0292 15.9111C86.2778 16.3835 87.2732 17.1259 88.0324 18.1466C88.7917 19.1674 89.2557 20.3906 89.4244 21.8078C89.5931 23.2335 89.4244 24.5242 88.9267 25.6968C88.4289 26.8694 87.6275 27.8227 86.5308 28.5651C85.4257 29.3074 84.0928 29.7714 82.5153 29.957L76.897 30.6234L75.1845 16.1389L75.176 16.1473ZM82.2201 27.0972C83.6204 26.9285 84.6665 26.4223 85.3751 25.5618C86.0753 24.7014 86.3453 23.5794 86.185 22.1959C86.0247 20.8124 85.4932 19.7832 84.6159 19.0999C83.7301 18.425 82.5912 18.1719 81.1909 18.3322L78.7529 18.619L79.7905 27.3756L82.2285 27.0888L82.2201 27.0972Z" fill="white"/>
<path id="Vector_6" d="M94.275 23.7056L92.0732 23.9672L90.1077 14.3755L93.946 13.9199L94.275 23.6972V23.7056ZM94.739 25.5025C95.1355 25.8146 95.3633 26.2449 95.4308 26.7932C95.4983 27.3416 95.3717 27.8055 95.0596 28.1936C94.7475 28.5816 94.3172 28.8178 93.7689 28.8769C93.2205 28.9444 92.7566 28.8178 92.3601 28.5142C91.9636 28.2105 91.7358 27.7802 91.6683 27.2319C91.6008 26.6835 91.7274 26.2196 92.0395 25.8231C92.3516 25.4266 92.7819 25.1904 93.3302 25.1313C93.8785 25.0638 94.3425 25.1904 94.7475 25.5025H94.739Z" fill="white"/>
</g>
<defs>
<clipPath id="clip0_658_23519">
<rect width="117.462" height="50" fill="white" transform="translate(0.669434)"/>
</clipPath>
</defs>
</svg>
