<svg width="58" height="52" viewBox="0 0 58 52" fill="none" xmlns="http://www.w3.org/2000/svg">
<g id="Layer_2">
<path id="Vector" d="M35.8698 1.42967C24.307 1.11727 14.6777 10.2358 14.3653 21.7986C14.2006 27.827 16.6027 33.3277 20.5752 37.2579C17.4512 41.9016 11.2455 48.7532 1.07162 50.5389C1.07162 50.5389 15.5473 51.6323 26.9961 41.5977C29.3729 42.6277 31.986 43.2272 34.7342 43.3032C46.297 43.6198 55.9264 34.497 56.2388 22.9342C56.5512 11.3714 47.4326 1.74206 35.8698 1.42967Z" fill="white" stroke="black" stroke-width="2"/>
<path id="Vector_2" d="M31.8721 23.6748C32.4589 23.6748 32.9402 23.1978 32.9402 22.611C32.9402 22.0242 32.4631 21.543 31.8721 21.543C31.2811 21.543 30.8083 22.02 30.8083 22.611C30.8083 23.202 31.2853 23.6748 31.8721 23.6748Z" fill="black"/>
<path id="Vector_3" d="M35.4434 23.6748C36.0344 23.6748 36.5115 23.1978 36.5115 22.611C36.5115 22.0242 36.0344 21.543 35.4434 21.543C34.8524 21.543 34.3796 22.02 34.3796 22.611C34.3796 23.202 34.8566 23.6748 35.4434 23.6748Z" fill="black"/>
<path id="Vector_4" d="M39.0192 23.6748C39.606 23.6748 40.083 23.1978 40.083 22.611C40.083 22.0242 39.606 21.543 39.0192 21.543C38.4324 21.543 37.9511 22.02 37.9511 22.611C37.9511 23.202 38.4282 23.6748 39.0192 23.6748Z" fill="black"/>
</g>
</svg>
