<svg width="37" height="50" viewBox="0 0 37 50" fill="none" xmlns="http://www.w3.org/2000/svg">
<g id="Layer_2" clip-path="url(#clip0_658_23528)">
<path id="Vector" d="M14.5963 25.3114C13.2247 27.1059 13.5733 29.6719 15.3678 31.0435C17.1623 32.4094 19.7283 32.0665 21.0999 30.2663L34.4557 12.7385C35.8216 10.9383 35.4787 8.37232 33.6785 7.00645C31.884 5.63487 29.318 5.98348 27.9464 7.77797L14.5906 25.3057L14.5963 25.3114Z" fill="white" stroke="black" stroke-width="2"/>
<path id="Vector_2" d="M18.2139 27.0364C17.6767 29.231 15.465 30.574 13.2705 30.0425C11.076 29.5053 9.73296 27.2936 10.2702 25.0991L15.4993 3.69091C16.0365 1.49638 18.2482 0.153367 20.4428 0.690571C22.6373 1.22778 23.9803 3.43946 23.4431 5.63399L18.2139 27.0364Z" fill="white" stroke="black" stroke-width="2"/>
<path id="Vector_3" d="M34.0556 31.7522L29.4722 41.359C26.1004 48.4169 17.648 51.4116 10.5843 48.0398C3.5264 44.6737 0.531768 36.2155 3.90358 29.1576L8.48696 19.5508L34.0556 31.7522Z" fill="white" stroke="black" stroke-width="2"/>
<path id="Vector_4" d="M25.2321 33.2843C24.2605 35.3245 25.1235 37.7648 27.1637 38.7364C29.2039 39.7079 31.6442 38.8449 32.6158 36.8047L35.7418 30.2497C36.7134 28.2094 35.8504 25.7692 33.8102 24.7976C31.77 23.8261 29.3297 24.689 28.3581 26.7236L25.2321 33.2786V33.2843Z" fill="white" stroke="black" stroke-width="2"/>
<path id="Vector_5" d="M17.8712 29.7687C16.8997 31.8089 17.7626 34.2492 19.8029 35.2207C21.8431 36.1923 24.2834 35.3293 25.2549 33.2891L28.381 26.734C29.3525 24.6938 28.4896 22.2535 26.4493 21.282C24.4091 20.3105 21.9688 21.1734 20.9973 23.2079L17.8712 29.763V29.7687Z" fill="white" stroke="black" stroke-width="2"/>
<path id="Vector_6" d="M3.17794 35.0495C5.33819 36.084 7.93849 35.1638 8.97289 33.0036L11.396 27.923L16.3109 30.2661C17.3567 30.7691 18.534 30.8319 19.6313 30.4433C20.7228 30.0547 21.6029 29.266 22.1001 28.2202C23.1345 26.0599 22.2144 23.4597 20.0484 22.431L15.1336 20.0878C10.8188 18.0419 5.62394 19.8821 3.54941 24.1854L1.12056 29.266C0.0861608 31.4263 1.00627 34.0266 3.17223 35.0553L3.17794 35.0495Z" fill="white" stroke="black" stroke-width="2"/>
</g>
<defs>
<clipPath id="clip0_658_23528">
<rect width="36.5813" height="50" fill="white" transform="translate(0.131836)"/>
</clipPath>
</defs>
</svg>
