<svg width="60" height="60" viewBox="0 0 60 60" fill="none" xmlns="http://www.w3.org/2000/svg">
<path d="M30.0006 7.43164C16.1936 7.43164 5 16.2805 5 27.1958C5 34.753 10.3671 41.3171 18.2505 44.6417C18.2361 46.4635 17.6316 48.5288 15.4956 50.0616C14.3646 50.8736 15.0086 52.6738 16.3963 52.5634C18.2877 52.4135 20.5041 51.8714 22.7925 50.5317C24.5435 49.5063 25.8496 48.1642 26.8211 46.7945C27.8633 46.8989 28.9224 46.9589 29.9994 46.9589C43.8064 46.9589 55 38.11 55 27.1946C55 16.2793 43.8076 7.43164 30.0006 7.43164Z" fill="#50C950"/>
<path d="M30.0007 30.7601C31.5486 30.7601 32.8035 29.5052 32.8035 27.9572C32.8035 26.4092 31.5486 25.1543 30.0007 25.1543C28.4527 25.1543 27.1978 26.4092 27.1978 27.9572C27.1978 29.5052 28.4527 30.7601 30.0007 30.7601Z" fill="white"/>
<path d="M20.2882 30.7601C21.8362 30.7601 23.0911 29.5052 23.0911 27.9572C23.0911 26.4092 21.8362 25.1543 20.2882 25.1543C18.7403 25.1543 17.4854 26.4092 17.4854 27.9572C17.4854 29.5052 18.7403 30.7601 20.2882 30.7601Z" fill="white"/>
<path d="M39.7131 30.7601C41.2611 30.7601 42.516 29.5052 42.516 27.9572C42.516 26.4092 41.2611 25.1543 39.7131 25.1543C38.1651 25.1543 36.9102 26.4092 36.9102 27.9572C36.9102 29.5052 38.1651 30.7601 39.7131 30.7601Z" fill="white"/>
</svg>
