<svg width="50" height="50" viewBox="0 0 50 50" fill="none" xmlns="http://www.w3.org/2000/svg">
<g id="Group">
<path id="Vector" d="M47.2415 0.0214844H2.75846C1.235 0.0214844 0 1.25649 0 2.77994V33.1253C0 34.6488 1.235 35.8838 2.75846 35.8838H47.2415C48.765 35.8838 50 34.6488 50 33.1253V2.77994C50 1.25649 48.765 0.0214844 47.2415 0.0214844Z" fill="#E4E5EA"/>
<path id="Vector_2" d="M2.75846 0.0839844H47.2415C48.7635 0.0839844 50 1.32049 50 2.84244V9.39437H0V2.84244C0 1.32049 1.23651 0.0839844 2.75846 0.0839844Z" fill="#3B78FF"/>
<path id="Vector_3" d="M11.246 6.89437C12.4363 6.89437 13.4012 5.92946 13.4012 4.73918C13.4012 3.5489 12.4363 2.58398 11.246 2.58398C10.0557 2.58398 9.09082 3.5489 9.09082 4.73918C9.09082 5.92946 10.0557 6.89437 11.246 6.89437Z" fill="#E4E5EA"/>
<path id="Vector_4" d="M4.99162 6.89437C6.1819 6.89437 7.14681 5.92946 7.14681 4.73918C7.14681 3.5489 6.1819 2.58398 4.99162 2.58398C3.80134 2.58398 2.83643 3.5489 2.83643 4.73918C2.83643 5.92946 3.80134 6.89437 4.99162 6.89437Z" fill="#E4E5EA"/>
<path id="Vector_5" d="M17.4994 6.89437C18.6897 6.89437 19.6546 5.92946 19.6546 4.73918C19.6546 3.5489 18.6897 2.58398 17.4994 2.58398C16.3092 2.58398 15.3442 3.5489 15.3442 4.73918C15.3442 5.92946 16.3092 6.89437 17.4994 6.89437Z" fill="#E4E5EA"/>
<g id="Group_2">
<path id="Vector_6" d="M24.9998 40.8717C32.5939 40.8717 38.7501 34.7155 38.7501 27.1214C38.7501 19.5273 32.5939 13.3711 24.9998 13.3711C17.4057 13.3711 11.2495 19.5273 11.2495 27.1214C11.2495 34.7155 17.4057 40.8717 24.9998 40.8717Z" fill="#FF5436"/>
<path id="Vector_7" d="M46.5423 45.9338L45.8923 46.651C45.0947 47.5325 43.8115 47.6704 43.0271 46.958L30.7124 35.7587L34.2516 31.8477L46.5663 43.047C47.3507 43.7594 47.3399 45.0523 46.5411 45.9338H46.5423Z" fill="#FF5436"/>
<path id="Vector_8" d="M49.0449 48.8197C47.7293 50.2721 45.4721 50.3717 44.0053 49.0404L34.5019 40.416C34.2092 40.151 34.1852 39.7012 34.4479 39.411L38.2582 35.2038C38.5208 34.9135 38.9718 34.8943 39.2644 35.1594L48.7727 43.7886C50.2371 45.1174 50.3582 47.3685 49.0449 48.8185V48.8197Z" fill="#FFC13C"/>
</g>
<path id="Vector_9" d="M25 36.4063C30.1281 36.4063 34.2852 32.2492 34.2852 27.1211C34.2852 21.9931 30.1281 17.8359 25 17.8359C19.872 17.8359 15.7148 21.9931 15.7148 27.1211C15.7148 32.2492 19.872 36.4063 25 36.4063Z" fill="white"/>
</g>
</svg>
