<svg width="52" height="50" viewBox="0 0 52 50" fill="none" xmlns="http://www.w3.org/2000/svg">
<g id="&#230;&#186;&#144;&#235;&#175;&#168;&#235;&#160;&#152;&#230;&#186;&#144;?13">
<path id="Vector" d="M8.97033 43.9547C8.3422 43.9547 7.73086 43.7078 7.27535 43.2523C6.67001 42.6469 6.43266 41.7635 6.65442 40.9364L15.7934 6.82954C16.0151 6.00243 16.6612 5.35633 17.4883 5.13457C18.3154 4.91281 19.1989 5.14895 19.8042 5.7555L44.7733 30.7246C45.3787 31.3299 45.616 32.2134 45.3942 33.0405C45.1725 33.8676 44.5264 34.5137 43.6993 34.7354L9.59126 43.8744C9.38628 43.9295 9.1777 43.9559 8.97033 43.9559V43.9547ZM19.3499 12.0811L12.3603 38.1673L38.4465 31.1777L19.3499 12.0811Z" fill="#142746"/>
<path id="Vector_2" d="M19.1468 13.8628C22.6892 13.291 25.0972 9.95583 24.5254 6.4135C23.9536 2.87116 20.6184 0.463094 17.0761 1.03492C13.5337 1.60675 11.1257 4.94194 11.6975 8.48427C12.2693 12.0266 15.6045 14.4347 19.1468 13.8628Z" fill="#FF5436"/>
<path id="Vector_3" d="M14.011 43.5251C14.305 39.949 11.6443 36.8116 8.06817 36.5176C4.49205 36.2236 1.35469 38.8843 1.06067 42.4604C0.766663 46.0365 3.42734 49.1739 7.00347 49.4679C10.5796 49.7619 13.717 47.1012 14.011 43.5251Z" fill="#FF5436"/>
<path id="Vector_4" d="M44.9929 39.5575C48.5713 39.2928 51.2577 36.1774 50.993 32.599C50.7283 29.0206 47.6129 26.3342 44.0345 26.5989C40.4561 26.8636 37.7697 29.979 38.0344 33.5574C38.2991 37.1358 41.4145 39.8222 44.9929 39.5575Z" fill="#FF5436"/>
</g>
</svg>
