<svg width="34" height="50" viewBox="0 0 34 50" fill="none" xmlns="http://www.w3.org/2000/svg">
<g id="Layer_1" clip-path="url(#clip0_682_1238)">
<g id="Group">
<path id="Vector" d="M29.295 0H4.70481C2.44134 0 0.606445 1.8349 0.606445 4.09836V45.9016C0.606445 48.1651 2.44134 50 4.70481 50H29.295C31.5584 50 33.3933 48.1651 33.3933 45.9016V4.09836C33.3933 1.8349 31.5584 0 29.295 0Z" fill="#2E63E8"/>
<path id="Vector_2" d="M30.9262 6.58984H3.07373V43.4177H30.9262V6.58984Z" fill="#E4E5EA"/>
<path id="Vector_3" d="M19.7132 4.45966H14.287C13.8361 4.45966 13.4673 4.0908 13.4673 3.63998C13.4673 3.18916 13.8361 2.82031 14.287 2.82031H19.7132C20.164 2.82031 20.5329 3.18916 20.5329 3.63998C20.5329 4.0908 20.164 4.45966 19.7132 4.45966Z" fill="#EEEEEE"/>
<path id="Vector_4" d="M15.3687 47.0237C15.3687 46.1221 16.0982 45.3926 16.9998 45.3926C17.9014 45.3926 18.6309 46.1221 18.6309 47.0237C18.6309 47.9254 17.9014 48.6549 16.9998 48.6549C16.0982 48.6549 15.3687 47.9254 15.3687 47.0237Z" fill="#EEEEEE"/>
</g>
</g>
<defs>
<clipPath id="clip0_682_1238">
<rect width="32.7869" height="50" fill="white" transform="translate(0.606445)"/>
</clipPath>
</defs>
</svg>
