<svg width="54" height="52" viewBox="0 0 54 52" fill="none" xmlns="http://www.w3.org/2000/svg">
<g id="Group 18">
<g id="Group">
<path id="Vector" d="M49.3449 0.955078H4.65488C2.22488 0.955078 0.254883 2.92508 0.254883 5.35508V36.3851C0.254883 38.8151 2.22488 40.7851 4.65488 40.7851H16.3549V44.5551C14.7549 44.7651 13.5149 46.1151 13.5149 47.7751C13.5149 49.5751 14.9749 51.0451 16.7849 51.0451H37.2149C39.0149 51.0451 40.4849 49.5851 40.4849 47.7751C40.4849 46.1151 39.2449 44.7551 37.6449 44.5551V40.7851H49.3449C51.7749 40.7851 53.7449 38.8151 53.7449 36.3851V5.35508C53.7449 2.92508 51.7749 0.955078 49.3449 0.955078Z" fill="#00154B"/>
<path id="Vector_2" d="M50.405 5.52539H3.60498V36.2154H50.405V5.52539Z" fill="#E4E5EA"/>
</g>
</g>
</svg>
