<svg width="50" height="50" viewBox="0 0 50 50" fill="none" xmlns="http://www.w3.org/2000/svg">
<g id="&#230;&#186;&#144;&#235;&#175;&#168;&#235;&#160;&#152;&#230;&#186;&#144;?35">
<g id="Group">
<path id="Vector" d="M8.14114 49.9991C10.4277 49.9991 12.2813 48.1455 12.2813 45.8589C12.2813 43.5724 10.4277 41.7188 8.14114 41.7188C5.85459 41.7188 4.00098 43.5724 4.00098 45.8589C4.00098 48.1455 5.85459 49.9991 8.14114 49.9991Z" fill="#FBC925"/>
<path id="Vector_2" d="M31.2051 49.9991C33.4917 49.9991 35.3453 48.1455 35.3453 45.8589C35.3453 43.5724 33.4917 41.7188 31.2051 41.7188C28.9186 41.7188 27.0649 43.5724 27.0649 45.8589C27.0649 48.1455 28.9186 49.9991 31.2051 49.9991Z" fill="#FBC925"/>
<path id="Vector_3" d="M3.13953 31.249L0.00620809 14.6031C-0.0765952 14.1627 0.260618 13.7559 0.709436 13.7559H39.1938L35.4832 31.8322H3.84276C3.49835 31.8322 3.20314 31.5874 3.13953 31.249Z" fill="#FF5436"/>
<path id="Vector_4" d="M33.8345 39.8269H5.38732C5.0441 39.8269 4.74889 39.5832 4.68529 39.246L4.03486 35.8487C3.95086 35.4083 4.28807 34.9991 4.73689 34.9991H29.8707C30.2115 34.9991 30.5055 34.7579 30.5727 34.423L36.477 4.68945H41.4032L34.5353 39.2508C34.4693 39.5857 34.1753 39.8269 33.8333 39.8269H33.8345Z" fill="#101F51"/>
<path id="Vector_5" d="M46.4325 7.14749H35.9849L37.3013 0.574823C37.3685 0.24001 37.6613 0 38.0021 0H46.4325C48.4066 0 50.0062 1.59966 50.0062 3.57374C50.0062 5.54782 48.4066 7.14749 46.4325 7.14749Z" fill="#FF5436"/>
</g>
</g>
</svg>
