<svg width="50" height="36" viewBox="0 0 50 36" fill="none" xmlns="http://www.w3.org/2000/svg">
<g id="Group 19">
<g id="Group">
<path id="Vector" d="M46.8963 0.0878906H3.10366C1.38956 0.0878906 0 1.47745 0 3.19155V32.8082C0 34.5224 1.38956 35.9119 3.10366 35.9119H46.8963C48.6104 35.9119 50 34.5224 50 32.8082V3.19155C50 1.47745 48.6104 0.0878906 46.8963 0.0878906Z" fill="#364E8C"/>
<path id="Vector_2" d="M45.1348 4.31641H4.87256V31.6752H45.1348V4.31641Z" fill="#E4E5EA"/>
<path id="Vector_3" d="M26.1637 33.9022C26.1637 34.5462 25.6438 35.066 24.9998 35.066C24.3558 35.066 23.8359 34.5462 23.8359 33.9022C23.8359 33.2581 24.3558 32.7383 24.9998 32.7383C25.6438 32.7383 26.1637 33.2581 26.1637 33.9022Z" fill="#EEEEEE"/>
<path id="Vector_4" d="M19.4444 2.65677C19.4444 3.08353 19.0952 3.43269 18.6685 3.43269C18.2417 3.43269 17.8926 3.08353 17.8926 2.65677C17.8926 2.23002 18.2417 1.88086 18.6685 1.88086C19.0952 1.88086 19.4444 2.23002 19.4444 2.65677Z" fill="#EEEEEE"/>
<path id="Vector_5" d="M28.7245 3.04349H21.2835C21.0662 3.04349 20.8955 2.87279 20.8955 2.65554C20.8955 2.43828 21.0662 2.26758 21.2835 2.26758H28.7245C28.9418 2.26758 29.1125 2.43828 29.1125 2.65554C29.1125 2.87279 28.9418 3.04349 28.7245 3.04349Z" fill="#EEEEEE"/>
</g>
</g>
</svg>
