<svg xmlns="http://www.w3.org/2000/svg" width="20" height="10" viewBox="0 0 20 10" fill="none">
  <g clip-path="url(#clip0_925_12744)">
    <path d="M4.575 3.24972C5.125 3.33186 6.32143 4.03544 7.63214 4.99972C6.32143 5.96401 5.125 6.66758 4.575 6.74972C3.625 6.73186 2.85714 5.95329 2.85714 4.99972C2.85714 4.04615 3.625 3.26758 4.575 3.24972ZM4.60714 0.392578C2.06429 0.392578 0 2.45686 0 4.99972C0 7.54258 2.06429 9.60686 4.60714 9.60686C7.15 9.60686 12.1179 4.99972 12.1179 4.99972C12.1179 4.99972 7.15357 0.392578 4.60714 0.392578Z" fill="#3B78FF"/>
    <path d="M15.4324 3.24972C16.3788 3.27115 17.1431 4.04615 17.1431 4.99972C17.1431 5.95329 16.3788 6.72829 15.4324 6.74972C14.9145 6.66044 13.8109 5.94615 12.6359 4.99972C13.8109 4.05329 14.9145 3.34258 15.4324 3.25329V3.24972ZM15.3931 0.392578C12.8502 0.392578 8.39307 4.99972 8.39307 4.99972C8.39307 4.99972 12.8466 9.60686 15.3931 9.60686C17.9395 9.60686 20.0002 7.54258 20.0002 4.99972C20.0002 2.45686 17.9359 0.392578 15.3931 0.392578Z" fill="#3B78FF"/>
  </g>
  <defs>
    <clipPath id="clip0_925_12744">
      <rect width="20" height="9.21429" fill="white" transform="translate(0 0.392578)"/>
    </clipPath>
  </defs>
</svg>