<svg xmlns="http://www.w3.org/2000/svg" width="20" height="18" viewBox="0 0 20 18" fill="none">
  <g clip-path="url(#clip0_925_12751)">
    <path d="M18.2142 15.6076H1.78564L1.78922 12.6326L7.48207 6.53613L18.2142 15.2683V15.6076Z" fill="#FFC13C"/>
    <path d="M18.2145 11.915L14.5574 8.88281L7.83594 15.6078H18.2145V11.915Z" fill="#3B78FF"/>
    <path d="M12.4999 7.39328C13.2888 7.39328 13.9284 6.75368 13.9284 5.9647C13.9284 5.17573 13.2888 4.53613 12.4999 4.53613C11.7109 4.53613 11.0713 5.17573 11.0713 5.9647C11.0713 6.75368 11.7109 7.39328 12.4999 7.39328Z" fill="#FFC13C"/>
    <path d="M17.8571 2.75028V15.2503H2.14286V2.75028H17.8571ZM20 0.607422H0V17.3931H20V0.607422Z" fill="#3B78FF"/>
  </g>
  <defs>
    <clipPath id="clip0_925_12751">
      <rect width="20" height="16.7857" fill="white" transform="translate(0 0.607422)"/>
    </clipPath>
  </defs>
</svg>