<svg xmlns="http://www.w3.org/2000/svg" width="40" height="40" viewBox="0 0 40 40" fill="none">
  <path d="M31.0902 29.3252L35.9727 34.2052C36.2004 34.441 36.3264 34.7567 36.3235 35.0845C36.3207 35.4122 36.1892 35.7257 35.9575 35.9575C35.7257 36.1892 35.4122 36.3207 35.0845 36.3235C34.7567 36.3264 34.441 36.2004 34.2052 35.9727L29.3227 31.0902C26.1321 33.8238 22.0067 35.2154 17.8122 34.9729C13.6177 34.7305 9.6802 32.8728 6.82583 29.7898C3.97146 26.7067 2.42215 22.638 2.50301 18.4373C2.58387 14.2365 4.28861 10.2304 7.25952 7.25952C10.2304 4.28861 14.2365 2.58387 18.4373 2.50301C22.638 2.42215 26.7067 3.97146 29.7898 6.82583C32.8728 9.6802 34.7305 13.6177 34.9729 17.8122C35.2154 22.0067 33.8238 26.1321 31.0902 29.3227V29.3252ZM18.7502 32.5002C22.3969 32.5002 25.8943 31.0515 28.4729 28.4729C31.0515 25.8943 32.5002 22.3969 32.5002 18.7502C32.5002 15.1035 31.0515 11.6061 28.4729 9.02748C25.8943 6.44886 22.3969 5.0002 18.7502 5.0002C15.1035 5.0002 11.6061 6.44886 9.02748 9.02748C6.44886 11.6061 5.0002 15.1035 5.0002 18.7502C5.0002 22.3969 6.44886 25.8943 9.02748 28.4729C11.6061 31.0515 15.1035 32.5002 18.7502 32.5002Z" fill="#486284"/>
</svg>